<svg width="15" height="15" viewBox="0 0 15 15" fill="none" xmlns="http://www.w3.org/2000/svg">
<path d="M14.298 19.7832L10.428 16.9687C11.129 16.293 11.55 15.4552 11.55 14.5454C11.55 12.3199 9.06095 10.509 5.99995 10.509C2.93995 10.509 0.449951 12.3199 0.449951 14.5454C0.449951 16.7716 2.93995 18.5818 5.99995 18.5818C7.25095 18.5818 8.40295 18.2756 9.33195 17.7658L13.202 20.5803C13.353 20.6901 13.552 20.7461 13.75 20.7461C13.948 20.7461 14.146 20.6909 14.298 20.5803C14.601 20.3599 14.601 20.0036 14.298 19.7832ZM1.54995 14.5454C1.54995 12.7607 3.54695 11.309 5.99995 11.309C8.45395 11.309 10.45 12.7614 10.45 14.5454C10.45 16.3294 8.45395 17.7818 5.99995 17.7818C3.54595 17.7818 1.54995 16.3301 1.54995 14.5454Z" fill="#DADADA"/>
</svg>
